<svg id="svg" version="1.1" xmlns="http://www.w3.org/2000/svg" xmlns:xlink="http://www.w3.org/1999/xlink" width="400" height="400" viewBox="0, 0, 400,400"><g id="svgg"><path id="path0" d="M322.627 88.951 C 322.834 88.991,323.134 88.990,323.294 88.948 C 323.453 88.906,323.283 88.874,322.917 88.875 C 322.550 88.877,322.420 88.911,322.627 88.951 M328.208 89.115 C 328.369 89.157,328.631 89.157,328.792 89.115 C 328.952 89.073,328.821 89.039,328.500 89.039 C 328.179 89.039,328.048 89.073,328.208 89.115 M331.127 89.285 C 331.334 89.324,331.634 89.323,331.794 89.281 C 331.953 89.239,331.783 89.207,331.417 89.209 C 331.050 89.211,330.920 89.245,331.127 89.285 M62.208 89.448 C 62.369 89.490,62.631 89.490,62.792 89.448 C 62.952 89.406,62.821 89.372,62.500 89.372 C 62.179 89.372,62.048 89.406,62.208 89.448 M336.794 89.451 C 337.001 89.491,337.301 89.490,337.460 89.448 C 337.620 89.406,337.450 89.374,337.083 89.375 C 336.717 89.377,336.586 89.411,336.794 89.451 M342.375 89.615 C 342.535 89.657,342.798 89.657,342.958 89.615 C 343.119 89.573,342.988 89.539,342.667 89.539 C 342.346 89.539,342.215 89.573,342.375 89.615 M345.294 89.785 C 345.501 89.824,345.801 89.823,345.960 89.781 C 346.120 89.739,345.950 89.707,345.583 89.709 C 345.217 89.711,345.086 89.745,345.294 89.785 M79.375 100.782 C 79.535 100.823,79.798 100.823,79.958 100.782 C 80.119 100.740,79.987 100.705,79.667 100.705 C 79.346 100.705,79.215 100.740,79.375 100.782 M315.794 100.785 C 316.001 100.824,316.301 100.823,316.460 100.781 C 316.620 100.739,316.450 100.707,316.083 100.709 C 315.717 100.711,315.586 100.745,315.794 100.785 M318.542 100.948 C 318.702 100.990,318.965 100.990,319.125 100.948 C 319.285 100.906,319.154 100.872,318.833 100.872 C 318.512 100.872,318.381 100.906,318.542 100.948 M324.294 101.118 C 324.501 101.158,324.801 101.156,324.960 101.115 C 325.120 101.073,324.950 101.040,324.583 101.042 C 324.217 101.044,324.086 101.078,324.294 101.118 M329.875 101.282 C 330.035 101.323,330.298 101.323,330.458 101.282 C 330.619 101.240,330.487 101.205,330.167 101.205 C 329.846 101.205,329.715 101.240,329.875 101.282 " stroke="none" fill="#f4fc04" fill-rule="evenodd"></path><path id="path1" d="M99.083 58.433 C 98.752 58.517,98.637 58.563,97.485 59.079 C 96.902 59.339,95.500 60.589,95.500 60.847 C 95.500 60.918,95.403 61.075,95.285 61.196 C 95.035 61.453,94.675 62.411,94.169 64.167 C 93.971 64.854,93.745 65.604,93.666 65.833 C 93.588 66.063,93.361 66.850,93.161 67.583 C 92.961 68.317,92.737 69.104,92.661 69.333 C 92.586 69.563,92.364 70.313,92.167 71.000 C 91.970 71.688,91.745 72.438,91.668 72.667 C 91.590 72.896,91.412 73.496,91.272 74.000 C 90.717 75.995,90.302 77.436,90.167 77.833 C 90.089 78.063,89.861 78.813,89.662 79.500 C 89.462 80.188,89.194 81.071,89.066 81.464 C 88.938 81.857,88.833 82.313,88.833 82.478 C 88.833 82.643,88.777 82.834,88.708 82.903 C 88.640 82.971,88.496 83.378,88.390 83.805 C 88.283 84.233,88.077 84.977,87.931 85.458 C 87.786 85.940,87.558 86.719,87.425 87.191 C 87.088 88.390,87.237 88.341,83.480 88.511 C 77.932 88.763,69.146 89.146,62.917 89.409 C 52.858 89.833,52.515 89.896,50.868 91.609 C 49.013 93.540,48.628 97.722,50.172 99.167 C 50.221 99.212,50.428 99.466,50.631 99.731 C 50.935 100.128,53.537 102.932,55.750 105.250 C 56.025 105.538,57.000 106.589,57.917 107.585 C 58.833 108.582,59.808 109.631,60.083 109.918 C 60.963 110.834,64.582 114.721,65.346 115.570 C 65.751 116.021,66.421 116.737,66.833 117.162 C 68.019 118.384,71.575 122.188,71.667 122.333 C 71.796 122.539,75.548 126.523,77.578 128.610 C 79.986 131.086,81.568 131.793,83.712 131.351 C 88.930 130.274,90.501 124.722,86.717 120.729 C 86.185 120.168,85.342 119.268,84.844 118.729 C 81.811 115.451,80.160 113.681,79.500 113.000 C 79.087 112.575,78.112 111.525,77.333 110.667 C 76.554 109.810,75.617 108.796,75.250 108.415 C 74.415 107.546,70.862 103.729,69.750 102.506 C 69.292 102.001,68.812 101.505,68.683 101.403 C 68.509 101.265,69.331 101.190,71.933 101.108 C 73.849 101.048,76.767 100.920,78.417 100.824 C 80.067 100.727,84.079 100.551,87.333 100.432 C 93.569 100.205,94.258 100.099,95.121 99.236 C 95.247 99.110,95.483 98.912,95.647 98.795 C 96.483 98.198,97.133 96.919,97.831 94.500 C 98.029 93.813,98.255 93.063,98.332 92.833 C 98.410 92.604,98.599 91.967,98.752 91.417 C 99.306 89.427,100.147 86.548,100.333 86.000 C 100.468 85.603,100.884 84.162,101.439 82.167 C 101.579 81.662,101.757 81.063,101.834 80.833 C 101.912 80.604,102.136 79.854,102.333 79.167 C 102.530 78.479,102.755 77.729,102.833 77.500 C 102.911 77.271,103.138 76.536,103.337 75.868 C 103.735 74.531,103.622 74.561,104.763 75.496 C 105.046 75.727,105.600 76.179,105.994 76.500 C 106.389 76.821,106.796 77.158,106.898 77.250 C 107.000 77.342,107.459 77.715,107.917 78.080 C 108.375 78.445,108.834 78.820,108.936 78.913 C 109.111 79.074,109.358 79.277,111.167 80.751 C 111.579 81.087,112.067 81.486,112.250 81.639 C 112.433 81.792,112.956 82.217,113.412 82.584 C 114.729 83.643,115.040 83.900,115.323 84.167 C 115.470 84.304,116.113 84.827,116.753 85.329 C 117.393 85.831,117.954 86.283,118.000 86.332 C 118.079 86.417,118.373 86.660,119.896 87.893 C 120.252 88.181,120.667 88.529,120.819 88.667 C 120.971 88.804,122.028 89.667,123.167 90.583 C 124.306 91.500,125.359 92.362,125.507 92.500 C 128.747 95.507,132.447 94.985,135.580 91.077 C 135.945 90.622,136.320 90.169,136.413 90.069 C 136.507 89.970,136.921 89.488,137.333 88.998 C 139.653 86.245,140.224 85.575,140.315 85.500 C 140.371 85.454,140.717 85.043,141.083 84.585 C 141.450 84.128,141.862 83.635,142.000 83.489 C 142.137 83.343,142.431 83.005,142.652 82.737 C 142.873 82.469,143.285 81.986,143.568 81.663 C 143.852 81.340,144.383 80.707,144.750 80.257 C 145.117 79.806,145.529 79.320,145.667 79.175 C 145.804 79.031,146.217 78.542,146.583 78.088 C 146.950 77.635,147.362 77.144,147.500 76.998 C 147.790 76.691,149.085 75.179,149.775 74.341 C 150.634 73.301,151.156 72.768,151.238 72.849 C 151.283 72.894,151.595 73.152,151.933 73.423 C 152.271 73.695,152.671 74.029,152.822 74.167 C 152.973 74.304,153.469 74.714,153.923 75.078 C 154.378 75.441,154.787 75.781,154.833 75.832 C 154.879 75.883,155.440 76.335,156.080 76.837 C 156.720 77.339,157.363 77.862,157.510 78.000 C 157.793 78.266,158.104 78.523,159.421 79.583 C 159.877 79.950,160.400 80.374,160.583 80.527 C 160.767 80.680,161.479 81.268,162.167 81.833 C 162.854 82.399,163.567 82.987,163.750 83.140 C 163.933 83.292,164.456 83.717,164.912 84.084 C 166.229 85.143,166.540 85.400,166.823 85.667 C 166.970 85.804,167.613 86.327,168.253 86.829 C 168.893 87.331,169.454 87.784,169.500 87.835 C 169.546 87.886,169.955 88.225,170.410 88.589 C 170.864 88.953,171.361 89.362,171.513 89.500 C 171.666 89.638,172.081 89.985,172.437 90.272 C 174.427 91.878,175.280 92.588,175.536 92.849 C 176.346 93.675,178.001 94.243,179.572 94.234 C 182.292 94.219,182.813 93.855,186.580 89.346 C 186.765 89.124,187.029 88.824,187.167 88.678 C 187.304 88.532,187.717 88.039,188.083 87.581 C 188.450 87.124,188.831 86.675,188.930 86.583 C 189.029 86.492,189.704 85.705,190.430 84.835 C 191.156 83.965,191.825 83.171,191.917 83.071 C 192.008 82.971,192.421 82.485,192.833 81.992 C 193.246 81.499,193.815 80.830,194.098 80.506 C 194.381 80.182,194.794 79.698,195.015 79.430 C 195.236 79.162,195.529 78.821,195.667 78.673 C 195.804 78.524,196.217 78.032,196.583 77.578 C 196.950 77.125,197.362 76.635,197.500 76.489 C 197.637 76.343,197.932 76.005,198.155 75.737 C 198.727 75.049,200.197 73.321,200.529 72.946 C 200.844 72.590,200.863 72.598,202.182 73.693 C 202.586 74.028,203.479 74.766,204.167 75.332 C 204.854 75.899,205.567 76.487,205.750 76.640 C 205.933 76.792,206.456 77.217,206.912 77.584 C 208.229 78.643,208.540 78.900,208.823 79.167 C 208.970 79.304,209.613 79.827,210.253 80.329 C 210.893 80.831,211.454 81.283,211.500 81.332 C 211.579 81.417,211.873 81.660,213.396 82.893 C 213.752 83.181,214.167 83.529,214.319 83.667 C 214.471 83.804,215.528 84.667,216.667 85.583 C 217.806 86.500,218.859 87.362,219.007 87.500 C 219.310 87.781,219.718 88.117,220.921 89.078 C 221.377 89.441,221.787 89.781,221.833 89.832 C 221.879 89.883,222.440 90.335,223.080 90.837 C 223.720 91.339,224.361 91.862,224.504 92.000 C 228.317 95.654,231.882 95.199,235.583 90.585 C 235.950 90.128,236.362 89.635,236.500 89.489 C 236.637 89.343,236.932 89.005,237.155 88.737 C 237.378 88.469,238.015 87.721,238.572 87.076 C 239.128 86.430,239.921 85.498,240.333 85.005 C 242.011 83.000,243.220 81.579,243.315 81.500 C 243.371 81.454,243.717 81.043,244.083 80.585 C 244.450 80.128,244.862 79.635,245.000 79.489 C 245.137 79.343,245.431 79.005,245.652 78.737 C 245.873 78.469,246.285 77.986,246.568 77.663 C 246.852 77.340,247.383 76.707,247.750 76.257 C 248.117 75.806,248.529 75.318,248.667 75.173 C 248.804 75.027,249.131 74.647,249.392 74.329 C 251.386 71.903,251.321 71.944,252.107 72.628 C 252.942 73.355,253.968 74.206,255.667 75.583 C 258.390 77.791,258.536 77.911,258.820 78.167 C 258.972 78.304,259.469 78.714,259.923 79.078 C 260.378 79.441,260.787 79.781,260.833 79.832 C 260.879 79.883,261.440 80.335,262.080 80.837 C 262.720 81.339,263.363 81.862,263.510 82.000 C 263.793 82.266,264.104 82.523,265.421 83.583 C 265.877 83.950,266.400 84.375,266.583 84.527 C 266.767 84.680,267.254 85.080,267.667 85.416 C 269.451 86.869,269.722 87.092,269.898 87.250 C 270.000 87.342,270.459 87.715,270.917 88.080 C 271.375 88.445,271.834 88.820,271.936 88.913 C 272.111 89.074,272.358 89.277,274.167 90.751 C 274.579 91.087,275.067 91.486,275.250 91.639 C 275.433 91.792,275.958 92.217,276.417 92.584 C 276.875 92.950,277.287 93.287,277.333 93.333 C 277.641 93.641,278.636 94.033,279.648 94.246 C 282.180 94.779,284.185 93.777,286.652 90.744 C 286.873 90.472,287.285 89.985,287.568 89.661 C 287.852 89.337,288.421 88.668,288.833 88.175 C 289.246 87.682,289.658 87.196,289.750 87.096 C 289.842 86.996,290.511 86.202,291.237 85.332 C 291.963 84.462,292.638 83.675,292.737 83.583 C 292.836 83.492,293.217 83.043,293.583 82.585 C 293.950 82.128,294.362 81.635,294.500 81.489 C 294.637 81.343,294.931 81.005,295.152 80.737 C 295.373 80.469,295.785 79.986,296.068 79.663 C 296.352 79.340,296.883 78.707,297.250 78.257 C 297.617 77.806,298.029 77.320,298.167 77.175 C 298.304 77.031,298.717 76.542,299.083 76.088 C 300.301 74.583,300.293 74.587,300.506 75.298 C 300.608 75.638,300.793 76.254,300.917 76.667 C 301.041 77.079,301.378 78.242,301.667 79.250 C 301.955 80.258,302.298 81.440,302.429 81.875 C 303.484 85.385,303.666 86.005,303.913 86.917 C 304.037 87.375,304.258 88.144,304.403 88.625 C 304.670 89.511,304.952 90.451,305.429 92.042 C 305.573 92.523,305.766 93.217,305.857 93.583 C 305.948 93.950,306.083 94.365,306.157 94.506 C 306.232 94.647,306.347 95.097,306.415 95.506 C 306.731 97.425,308.009 99.130,309.786 100.005 C 311.065 100.635,310.055 100.565,325.083 101.069 C 332.416 101.315,335.000 101.462,335.000 101.633 C 335.000 101.680,334.644 102.101,334.208 102.570 C 331.217 105.791,329.324 107.817,328.750 108.415 C 328.383 108.796,327.446 109.810,326.667 110.667 C 325.887 111.525,324.912 112.575,324.500 113.000 C 323.840 113.681,322.189 115.451,319.156 118.729 C 318.658 119.268,317.815 120.168,317.283 120.729 C 313.499 124.722,315.070 130.274,320.288 131.351 C 322.432 131.793,324.014 131.086,326.422 128.610 C 328.452 126.523,332.204 122.539,332.333 122.333 C 332.425 122.188,335.981 118.384,337.167 117.162 C 337.579 116.737,338.249 116.021,338.654 115.570 C 339.418 114.721,343.037 110.834,343.917 109.918 C 344.192 109.631,345.167 108.582,346.083 107.585 C 347.000 106.589,347.975 105.539,348.250 105.251 C 350.251 103.158,352.910 100.284,353.350 99.738 C 355.398 97.200,355.219 93.497,352.951 91.459 C 351.359 90.028,351.168 89.974,347.167 89.810 C 342.367 89.613,330.733 89.204,323.303 88.971 L 317.022 88.774 316.665 87.512 C 316.469 86.818,316.202 85.894,316.071 85.458 C 315.940 85.023,315.726 84.310,315.595 83.875 C 315.465 83.440,315.138 82.296,314.869 81.333 C 314.378 79.572,313.595 76.940,313.333 76.167 C 313.198 75.769,312.779 74.315,312.228 72.333 C 312.088 71.829,311.910 71.229,311.832 71.000 C 311.755 70.771,311.530 70.021,311.333 69.333 C 311.136 68.646,310.912 67.896,310.834 67.667 C 310.757 67.438,310.579 66.837,310.439 66.333 C 309.131 61.629,308.837 60.956,307.620 59.888 C 306.217 58.656,305.368 58.420,302.503 58.465 C 298.300 58.531,297.778 58.827,294.225 63.162 C 293.964 63.481,293.637 63.862,293.500 64.009 C 293.362 64.156,293.100 64.460,292.917 64.684 C 292.733 64.908,292.171 65.575,291.667 66.167 C 291.162 66.758,290.600 67.426,290.417 67.650 C 290.233 67.874,289.971 68.176,289.833 68.322 C 289.696 68.468,289.283 68.958,288.917 69.412 C 288.550 69.865,288.137 70.356,288.000 70.502 C 287.696 70.824,286.375 72.369,285.725 73.162 C 285.464 73.481,285.137 73.862,285.000 74.009 C 284.862 74.156,284.600 74.460,284.417 74.684 C 284.233 74.908,283.671 75.575,283.167 76.167 C 282.662 76.758,282.100 77.424,281.917 77.646 C 281.733 77.868,281.370 78.282,281.110 78.566 C 280.850 78.851,280.522 79.252,280.383 79.458 C 280.077 79.910,279.928 79.924,279.529 79.542 C 279.204 79.231,278.892 78.971,277.579 77.920 C 277.123 77.555,276.666 77.180,276.564 77.087 C 276.389 76.926,276.142 76.723,274.333 75.249 C 273.921 74.913,273.433 74.514,273.250 74.361 C 273.067 74.208,272.544 73.783,272.088 73.416 C 270.791 72.373,270.463 72.102,270.173 71.833 C 270.024 71.696,269.531 71.286,269.077 70.922 C 268.622 70.559,268.212 70.219,268.167 70.168 C 268.121 70.117,267.560 69.665,266.920 69.163 C 266.280 68.661,265.637 68.137,265.490 68.000 C 265.207 67.734,264.896 67.477,263.579 66.417 C 263.123 66.050,262.600 65.625,262.417 65.473 C 262.233 65.320,261.746 64.920,261.333 64.584 C 259.524 63.111,259.278 62.907,259.102 62.747 C 259.000 62.653,258.544 62.278,258.088 61.913 C 256.797 60.880,256.464 60.604,256.164 60.317 C 254.641 58.866,253.454 58.444,250.946 58.464 C 247.825 58.489,246.447 59.057,244.896 60.955 C 244.541 61.390,244.137 61.865,244.000 62.011 C 243.862 62.157,243.600 62.460,243.417 62.684 C 243.233 62.908,242.671 63.575,242.167 64.167 C 241.662 64.758,241.100 65.426,240.917 65.650 C 240.733 65.874,240.471 66.178,240.333 66.325 C 240.196 66.472,239.870 66.853,239.609 67.171 C 238.958 67.964,237.638 69.509,237.333 69.832 C 237.196 69.978,236.783 70.468,236.417 70.922 C 236.050 71.375,235.637 71.865,235.500 72.011 C 235.362 72.157,235.100 72.460,234.917 72.684 C 234.733 72.908,234.171 73.575,233.667 74.167 C 233.162 74.758,232.600 75.426,232.417 75.650 C 232.233 75.874,231.971 76.176,231.833 76.322 C 231.696 76.468,231.283 76.957,230.917 77.409 C 230.550 77.862,229.970 78.536,229.627 78.908 C 229.284 79.279,229.003 79.640,229.002 79.708 C 229.001 79.777,228.894 79.833,228.764 79.833 C 228.634 79.833,228.503 79.777,228.472 79.708 C 228.420 79.590,228.154 79.362,226.604 78.107 C 226.248 77.819,225.833 77.471,225.681 77.333 C 225.529 77.196,224.472 76.333,223.333 75.417 C 222.194 74.500,221.141 73.637,220.993 73.500 C 220.704 73.232,220.379 72.963,219.079 71.917 C 217.899 70.969,217.480 70.619,217.178 70.331 C 217.032 70.192,216.652 69.893,216.333 69.667 C 216.015 69.440,215.635 69.141,215.489 69.002 C 215.187 68.715,214.767 68.365,213.588 67.416 C 212.271 66.357,211.960 66.100,211.677 65.833 C 211.530 65.696,210.887 65.173,210.247 64.671 C 209.607 64.169,209.046 63.717,209.000 63.668 C 208.921 63.583,208.627 63.340,207.104 62.107 C 206.748 61.819,206.319 61.454,206.150 61.297 C 205.312 60.514,202.955 58.833,202.695 58.833 C 202.533 58.833,202.314 58.748,202.209 58.643 C 201.875 58.309,198.879 58.380,197.917 58.745 C 196.764 59.182,195.681 59.917,195.058 60.683 C 194.293 61.625,193.122 63.015,192.833 63.324 C 192.696 63.472,192.370 63.853,192.109 64.171 C 191.458 64.964,190.138 66.509,189.833 66.832 C 189.696 66.978,189.283 67.468,188.917 67.922 C 188.550 68.375,188.137 68.865,188.000 69.011 C 187.862 69.157,187.600 69.460,187.417 69.684 C 187.233 69.908,186.671 70.575,186.167 71.167 C 185.662 71.758,185.100 72.426,184.917 72.650 C 184.733 72.874,184.471 73.176,184.333 73.322 C 184.196 73.468,183.783 73.961,183.417 74.419 C 183.050 74.876,182.669 75.325,182.570 75.417 C 182.471 75.508,181.796 76.295,181.070 77.166 C 180.344 78.036,179.522 78.996,179.243 79.300 L 178.736 79.852 178.316 79.468 C 178.086 79.256,177.526 78.786,177.073 78.422 C 176.621 78.059,176.213 77.719,176.167 77.668 C 176.121 77.617,175.560 77.165,174.920 76.663 C 174.280 76.161,173.637 75.637,173.490 75.500 C 173.207 75.234,172.896 74.977,171.579 73.917 C 171.123 73.550,170.600 73.125,170.417 72.973 C 170.233 72.820,169.746 72.420,169.333 72.084 C 167.524 70.611,167.278 70.407,167.102 70.247 C 167.000 70.153,166.544 69.778,166.088 69.413 C 164.831 68.407,164.468 68.107,164.177 67.833 C 164.030 67.696,163.387 67.173,162.747 66.671 C 162.107 66.169,161.546 65.716,161.500 65.665 C 161.454 65.614,161.044 65.275,160.588 64.911 C 159.388 63.954,158.977 63.615,158.673 63.333 C 158.524 63.196,158.031 62.786,157.577 62.422 C 157.122 62.059,156.712 61.719,156.667 61.668 C 156.621 61.617,156.058 61.166,155.417 60.665 C 154.775 60.164,154.159 59.678,154.047 59.585 C 153.936 59.493,153.749 59.339,153.631 59.245 C 152.995 58.734,151.700 58.417,150.250 58.418 C 148.016 58.419,146.783 59.112,144.912 61.420 C 144.548 61.869,144.137 62.356,144.000 62.502 C 143.696 62.824,142.375 64.369,141.725 65.162 C 141.464 65.481,141.137 65.862,141.000 66.009 C 140.862 66.156,140.600 66.460,140.417 66.684 C 140.233 66.908,139.671 67.575,139.167 68.167 C 138.662 68.758,138.100 69.426,137.917 69.650 C 137.733 69.874,137.471 70.176,137.333 70.322 C 137.196 70.468,136.783 70.958,136.417 71.412 C 136.050 71.865,135.637 72.356,135.500 72.502 C 135.196 72.824,133.875 74.369,133.225 75.162 C 132.964 75.481,132.637 75.862,132.500 76.009 C 132.362 76.156,132.100 76.460,131.917 76.684 C 131.452 77.252,129.808 79.183,129.468 79.562 C 129.178 79.884,128.675 79.613,127.490 78.500 C 127.207 78.234,126.898 77.978,125.579 76.917 C 125.123 76.550,124.600 76.125,124.417 75.973 C 124.233 75.820,123.746 75.420,123.333 75.084 C 121.549 73.631,121.278 73.408,121.102 73.250 C 121.000 73.158,120.541 72.785,120.083 72.420 C 119.625 72.055,119.166 71.680,119.064 71.587 C 118.889 71.426,118.642 71.223,116.833 69.749 C 116.421 69.413,115.933 69.014,115.750 68.861 C 115.567 68.708,115.044 68.283,114.588 67.916 C 113.287 66.870,112.962 66.601,112.674 66.333 C 112.525 66.196,111.472 65.333,110.333 64.417 C 109.194 63.500,108.141 62.637,107.993 62.500 C 107.698 62.226,107.331 61.923,106.079 60.919 C 105.623 60.554,105.067 60.089,104.842 59.885 C 103.637 58.788,100.660 58.038,99.083 58.433 " stroke="none" fill="#54fc04" fill-rule="evenodd"></path><path id="path2" d="M137.958 114.451 C 138.165 114.491,138.502 114.491,138.708 114.451 C 138.915 114.411,138.746 114.379,138.333 114.379 C 137.921 114.379,137.752 114.411,137.958 114.451 M261.211 114.453 C 261.464 114.491,261.839 114.490,262.044 114.451 C 262.249 114.411,262.042 114.380,261.583 114.381 C 261.125 114.382,260.957 114.415,261.211 114.453 M305.333 134.943 C 305.333 135.034,305.540 135.290,305.792 135.513 L 306.250 135.917 305.833 135.417 C 305.604 135.142,305.398 134.885,305.375 134.847 C 305.352 134.809,305.333 134.852,305.333 134.943 M108.329 143.792 L 107.250 144.917 108.375 143.838 C 108.994 143.245,109.500 142.739,109.500 142.713 C 109.500 142.590,109.330 142.747,108.329 143.792 M78.714 173.583 C 78.716 174.042,78.748 174.209,78.786 173.956 C 78.825 173.703,78.824 173.328,78.784 173.123 C 78.744 172.918,78.713 173.125,78.714 173.583 M94.732 176.417 C 94.733 177.700,94.759 178.203,94.791 177.534 C 94.822 176.866,94.822 175.816,94.790 175.201 C 94.758 174.586,94.732 175.133,94.732 176.417 M321.231 176.500 C 321.231 177.646,321.258 178.115,321.290 177.542 C 321.323 176.969,321.323 176.031,321.290 175.458 C 321.258 174.885,321.231 175.354,321.231 176.500 M305.228 176.250 C 305.228 177.167,305.256 177.520,305.290 177.036 C 305.324 176.552,305.323 175.802,305.289 175.369 C 305.255 174.937,305.227 175.333,305.228 176.250 M78.556 176.667 C 78.556 177.354,78.585 177.635,78.621 177.292 C 78.657 176.948,78.657 176.385,78.621 176.042 C 78.585 175.698,78.556 175.979,78.556 176.667 M305.039 179.333 C 305.039 179.654,305.073 179.785,305.115 179.625 C 305.157 179.465,305.157 179.202,305.115 179.042 C 305.073 178.881,305.039 179.012,305.039 179.333 M128.917 247.167 C 129.059 247.442,129.213 247.667,129.259 247.667 C 129.304 247.667,129.226 247.442,129.083 247.167 C 128.941 246.892,128.787 246.667,128.741 246.667 C 128.696 246.667,128.774 246.892,128.917 247.167 M270.917 247.167 C 270.774 247.442,270.696 247.667,270.741 247.667 C 270.787 247.667,270.941 247.442,271.083 247.167 C 271.226 246.892,271.304 246.667,271.259 246.667 C 271.213 246.667,271.059 246.892,270.917 247.167 M277.417 267.833 C 277.274 268.108,277.196 268.333,277.241 268.333 C 277.287 268.333,277.441 268.108,277.583 267.833 C 277.726 267.558,277.804 267.333,277.759 267.333 C 277.713 267.333,277.559 267.558,277.417 267.833 M154.000 319.219 C 154.000 319.248,154.244 319.491,154.542 319.760 L 155.083 320.250 154.594 319.708 C 154.138 319.203,154.000 319.090,154.000 319.219 M194.958 339.284 C 195.165 339.324,195.502 339.324,195.708 339.284 C 195.915 339.245,195.746 339.212,195.333 339.212 C 194.921 339.212,194.752 339.245,194.958 339.284 M204.294 339.285 C 204.501 339.324,204.801 339.323,204.960 339.281 C 205.120 339.239,204.950 339.207,204.583 339.209 C 204.217 339.211,204.086 339.245,204.294 339.285 " stroke="none" fill="#fcfc4c" fill-rule="evenodd"></path><path id="path3" d="" stroke="none" fill="#fcfc09" fill-rule="evenodd"></path><path id="path4" d="M138.984 114.405 C 138.944 114.445,137.871 114.522,136.601 114.576 C 135.331 114.629,134.223 114.715,134.139 114.767 C 134.055 114.819,133.596 114.894,133.118 114.933 C 131.322 115.080,130.725 115.153,129.833 115.331 C 129.329 115.432,128.773 115.515,128.598 115.516 C 128.423 115.516,128.135 115.595,127.957 115.690 C 127.779 115.785,127.360 115.899,127.025 115.944 C 126.691 115.989,126.267 116.057,126.083 116.094 C 125.900 116.131,125.506 116.209,125.208 116.266 C 124.910 116.324,124.667 116.431,124.667 116.504 C 124.667 116.577,124.535 116.617,124.375 116.592 C 124.215 116.567,123.935 116.649,123.755 116.773 C 123.574 116.898,123.285 117.000,123.114 117.000 C 122.670 117.000,120.517 117.671,120.411 117.842 C 120.362 117.921,120.213 117.943,120.078 117.892 C 119.942 117.839,119.833 117.892,119.833 118.010 C 119.833 118.127,119.786 118.175,119.729 118.118 C 119.671 118.060,119.410 118.124,119.147 118.260 C 118.885 118.396,118.633 118.507,118.587 118.508 C 118.443 118.510,117.944 118.699,117.167 119.047 C 116.754 119.231,116.273 119.410,116.096 119.445 C 115.920 119.479,115.669 119.596,115.538 119.704 C 115.407 119.813,115.206 119.916,115.091 119.933 C 114.685 119.992,111.447 121.678,111.361 121.875 C 111.330 121.945,111.236 121.960,111.152 121.908 C 111.069 121.856,111.000 121.878,111.000 121.957 C 111.000 122.035,110.730 122.197,110.401 122.316 C 110.072 122.435,109.356 122.807,108.810 123.141 C 108.265 123.476,107.691 123.825,107.534 123.917 C 106.890 124.295,105.575 125.240,105.464 125.406 C 105.399 125.503,105.287 125.585,105.214 125.588 C 104.992 125.596,103.333 126.855,103.333 127.016 C 103.333 127.099,103.240 127.167,103.125 127.167 C 103.010 127.167,102.654 127.392,102.333 127.667 C 102.013 127.941,101.694 128.166,101.625 128.166 C 101.556 128.166,101.500 128.279,101.500 128.417 C 101.500 128.554,101.414 128.667,101.309 128.667 C 100.950 128.667,98.958 130.402,99.125 130.569 C 99.178 130.623,99.123 130.667,99.001 130.667 C 98.773 130.667,95.289 134.144,94.059 135.599 C 93.679 136.049,93.173 136.642,92.934 136.917 C 92.696 137.192,92.500 137.462,92.500 137.518 C 92.500 137.574,92.234 137.902,91.909 138.247 C 91.584 138.591,91.350 138.905,91.388 138.944 C 91.427 138.982,91.205 139.275,90.896 139.593 C 90.587 139.912,90.333 140.266,90.333 140.380 C 90.333 140.494,90.143 140.792,89.910 141.043 C 89.677 141.295,89.546 141.501,89.618 141.503 C 89.691 141.504,89.668 141.560,89.568 141.628 C 89.230 141.855,88.339 143.207,88.430 143.354 C 88.479 143.434,88.442 143.500,88.347 143.500 C 88.251 143.500,88.020 143.781,87.832 144.125 C 87.644 144.469,87.353 144.975,87.184 145.250 C 87.016 145.525,86.910 145.806,86.949 145.875 C 86.988 145.944,86.938 146.000,86.837 146.000 C 86.680 146.000,85.969 147.344,85.930 147.714 C 85.923 147.787,85.806 147.914,85.671 147.997 C 85.537 148.080,85.476 148.198,85.536 148.259 C 85.597 148.319,85.507 148.519,85.336 148.703 C 85.164 148.886,85.065 149.141,85.113 149.268 C 85.162 149.396,85.115 149.500,85.008 149.500 C 84.901 149.500,84.856 149.569,84.908 149.652 C 84.960 149.736,84.945 149.830,84.876 149.861 C 84.755 149.914,83.833 151.691,83.833 151.870 C 83.833 151.918,83.668 152.323,83.465 152.770 C 83.263 153.218,83.093 153.621,83.088 153.667 C 83.073 153.797,82.322 155.721,82.175 156.005 C 82.102 156.146,81.987 156.521,81.918 156.839 C 81.850 157.157,81.749 157.492,81.694 157.583 C 81.638 157.675,81.573 157.879,81.548 158.036 C 81.462 158.587,81.416 158.751,81.321 158.833 C 81.200 158.938,80.160 162.908,80.076 163.583 C 80.042 163.858,79.941 164.383,79.853 164.750 C 79.765 165.117,79.672 165.679,79.646 166.000 C 79.621 166.321,79.532 166.677,79.447 166.791 C 79.363 166.905,79.335 167.154,79.384 167.344 C 79.434 167.535,79.366 168.059,79.232 168.508 C 79.098 168.958,78.995 169.572,79.003 169.872 C 79.010 170.171,78.956 171.279,78.883 172.333 C 78.636 175.891,78.804 182.922,79.169 184.333 C 79.252 184.654,79.360 185.329,79.409 185.833 C 79.517 186.939,79.585 187.281,79.808 187.858 C 79.902 188.101,79.937 188.341,79.885 188.392 C 79.834 188.444,79.850 188.620,79.921 188.784 C 79.992 188.949,80.077 189.233,80.109 189.417 C 80.315 190.571,80.564 191.640,80.710 192.000 C 80.803 192.229,80.909 192.671,80.947 192.983 C 80.984 193.294,81.102 193.706,81.209 193.899 C 81.316 194.092,81.431 194.475,81.466 194.750 C 81.500 195.025,81.583 195.325,81.651 195.416 C 81.718 195.508,81.874 195.902,81.997 196.292 C 82.120 196.681,82.287 197.000,82.370 197.000 C 82.452 197.000,82.473 197.075,82.417 197.167 C 82.360 197.258,82.372 197.427,82.444 197.542 C 82.515 197.656,82.595 197.889,82.622 198.059 C 82.648 198.230,82.894 198.828,83.168 199.390 C 83.442 199.952,83.667 200.507,83.667 200.623 C 83.667 200.738,83.746 200.833,83.843 200.833 C 83.940 200.833,83.977 200.903,83.924 200.988 C 83.806 201.180,84.167 202.000,84.370 202.000 C 84.452 202.000,84.483 202.059,84.438 202.132 C 84.352 202.271,85.873 205.431,86.426 206.261 C 86.605 206.530,86.894 207.031,87.069 207.375 C 87.243 207.719,87.449 208.000,87.526 208.000 C 87.603 208.000,87.649 208.056,87.628 208.125 C 87.573 208.305,88.212 209.333,88.379 209.333 C 88.456 209.333,88.473 209.408,88.417 209.500 C 88.360 209.592,88.398 209.667,88.500 209.667 C 88.602 209.667,88.640 209.742,88.583 209.833 C 88.527 209.925,88.555 210.000,88.646 210.000 C 88.736 210.000,88.863 210.164,88.927 210.365 C 88.991 210.566,89.316 211.185,89.650 211.740 C 89.984 212.296,90.403 213.031,90.583 213.375 C 90.762 213.719,90.972 214.000,91.048 214.000 C 91.124 214.000,91.140 214.075,91.083 214.167 C 91.027 214.258,91.060 214.333,91.157 214.333 C 91.254 214.333,91.333 214.446,91.333 214.583 C 91.333 214.721,91.483 214.983,91.667 215.167 C 91.850 215.350,91.962 215.500,91.915 215.500 C 91.790 215.500,92.683 216.894,92.900 217.039 C 93.001 217.106,93.029 217.163,92.962 217.164 C 92.895 217.166,92.989 217.410,93.171 217.708 C 93.352 218.006,93.600 218.457,93.720 218.711 C 93.840 218.965,93.990 219.121,94.053 219.058 C 94.115 218.996,94.167 219.066,94.167 219.215 C 94.167 219.364,94.354 219.761,94.583 220.099 C 94.813 220.437,95.000 220.815,95.000 220.940 C 95.000 221.065,95.075 221.167,95.167 221.167 C 95.258 221.167,95.333 221.279,95.333 221.417 C 95.333 221.554,95.483 221.817,95.667 222.000 C 95.850 222.183,95.996 222.373,95.992 222.421 C 95.974 222.612,96.737 223.833,96.874 223.833 C 96.954 223.833,96.973 223.908,96.917 224.000 C 96.860 224.092,96.886 224.167,96.974 224.167 C 97.062 224.167,97.208 224.377,97.297 224.635 C 97.387 224.893,97.587 225.230,97.742 225.385 C 97.897 225.540,97.979 225.667,97.924 225.667 C 97.769 225.667,98.281 226.583,98.572 226.824 C 98.716 226.943,98.833 227.182,98.833 227.354 C 98.833 227.526,98.908 227.667,99.000 227.667 C 99.092 227.667,99.154 227.723,99.138 227.792 C 99.091 227.992,99.540 228.833,99.693 228.833 C 99.770 228.833,99.833 228.921,99.833 229.029 C 99.833 229.136,99.961 229.365,100.116 229.537 C 100.272 229.709,100.413 229.939,100.430 230.050 C 100.480 230.383,101.189 231.500,101.350 231.500 C 101.432 231.500,101.484 231.556,101.465 231.625 C 101.410 231.823,101.984 232.920,102.348 233.311 C 102.530 233.507,102.620 233.669,102.548 233.672 C 102.476 233.675,102.529 233.769,102.667 233.880 C 102.804 233.992,102.943 234.231,102.974 234.412 C 103.033 234.747,104.119 236.499,104.383 236.685 C 104.463 236.741,104.521 236.854,104.513 236.935 C 104.504 237.017,104.594 237.196,104.711 237.333 C 104.829 237.471,104.942 237.658,104.961 237.750 C 104.981 237.842,105.126 238.067,105.283 238.250 C 105.440 238.433,105.552 238.621,105.532 238.667 C 105.512 238.713,105.684 239.038,105.914 239.390 C 106.145 239.742,106.333 240.105,106.333 240.197 C 106.333 240.289,106.483 240.555,106.667 240.788 C 106.850 241.021,107.000 241.318,107.000 241.449 C 107.000 241.580,107.075 241.640,107.167 241.583 C 107.258 241.527,107.333 241.635,107.333 241.823 C 107.333 242.012,107.390 242.167,107.459 242.167 C 107.529 242.167,107.691 242.410,107.821 242.708 C 107.951 243.006,108.102 243.287,108.157 243.333 C 108.365 243.506,108.906 244.422,108.870 244.542 C 108.850 244.610,108.913 244.667,109.010 244.667 C 109.107 244.667,109.140 244.742,109.083 244.835 C 109.026 244.927,109.096 245.047,109.238 245.102 C 109.381 245.157,109.458 245.266,109.410 245.345 C 109.361 245.423,109.474 245.641,109.661 245.827 C 109.847 246.014,109.988 246.185,109.972 246.208 C 109.909 246.304,110.539 247.479,110.809 247.769 C 110.970 247.942,111.130 248.158,111.165 248.250 C 111.199 248.342,111.305 248.623,111.400 248.875 C 111.495 249.127,111.632 249.333,111.703 249.333 C 111.775 249.333,111.833 249.423,111.833 249.533 C 111.833 249.751,112.648 251.009,112.916 251.206 C 113.008 251.273,113.029 251.329,112.963 251.331 C 112.868 251.333,114.121 253.575,115.013 255.000 C 115.099 255.137,115.261 255.438,115.373 255.667 C 115.485 255.896,115.622 256.121,115.678 256.167 C 115.733 256.212,116.022 256.700,116.320 257.250 C 116.618 257.800,117.006 258.406,117.183 258.596 C 117.359 258.786,117.452 258.992,117.390 259.054 C 117.328 259.116,117.378 259.167,117.500 259.167 C 117.622 259.167,117.676 259.212,117.621 259.268 C 117.514 259.375,118.269 260.675,118.539 260.852 C 118.625 260.908,118.689 261.002,118.681 261.060 C 118.638 261.379,118.682 261.510,118.806 261.434 C 118.882 261.387,118.945 261.438,118.946 261.549 C 118.947 261.660,119.246 262.237,119.610 262.833 C 119.975 263.429,120.486 264.310,120.746 264.792 C 121.007 265.273,121.287 265.667,121.370 265.667 C 121.452 265.667,121.475 265.739,121.420 265.827 C 121.366 265.916,121.468 266.134,121.647 266.313 C 121.826 266.492,121.924 266.687,121.866 266.745 C 121.807 266.804,121.832 266.904,121.921 266.967 C 122.011 267.031,122.177 267.252,122.292 267.458 C 122.406 267.665,122.594 268.002,122.708 268.208 C 122.823 268.415,122.963 268.621,123.019 268.667 C 123.076 268.712,123.281 269.064,123.475 269.447 C 123.670 269.830,123.906 270.192,124.000 270.250 C 124.095 270.309,124.129 270.426,124.076 270.512 C 124.023 270.597,124.052 270.667,124.141 270.667 C 124.229 270.667,124.382 270.873,124.481 271.125 C 124.655 271.565,124.991 272.158,125.167 272.333 C 125.213 272.379,125.357 272.623,125.487 272.875 C 125.617 273.127,125.790 273.333,125.871 273.333 C 125.953 273.333,125.973 273.408,125.917 273.500 C 125.860 273.592,125.898 273.667,126.000 273.667 C 126.102 273.667,126.143 273.736,126.090 273.822 C 126.038 273.907,126.069 274.023,126.159 274.079 C 126.250 274.135,126.447 274.440,126.598 274.757 C 126.748 275.074,126.938 275.333,127.019 275.333 C 127.100 275.333,127.167 275.443,127.167 275.578 C 127.167 275.712,127.467 276.286,127.833 276.854 C 128.200 277.421,128.500 277.947,128.500 278.023 C 128.500 278.217,129.693 280.072,129.862 280.139 C 129.939 280.170,129.961 280.261,129.912 280.341 C 129.862 280.422,129.974 280.641,130.161 280.827 C 130.347 281.014,130.499 281.223,130.499 281.292 C 130.498 281.360,130.594 281.529,130.711 281.667 C 130.829 281.804,130.949 281.992,130.978 282.083 C 131.007 282.175,131.152 282.456,131.301 282.708 C 131.594 283.205,131.935 283.340,131.763 282.892 C 131.699 282.724,131.790 282.493,131.996 282.302 C 132.181 282.129,132.333 282.037,132.333 282.097 C 132.333 282.158,132.434 282.124,132.557 282.022 C 132.680 281.920,132.830 281.886,132.890 281.946 C 132.951 282.006,133.000 281.933,133.000 281.783 C 133.000 281.629,133.094 281.546,133.214 281.593 C 133.332 281.638,133.587 281.528,133.780 281.347 C 133.973 281.167,134.177 281.066,134.232 281.121 C 134.288 281.177,134.333 281.122,134.333 281.000 C 134.333 280.878,134.376 280.821,134.429 280.873 C 134.518 280.962,134.875 280.789,137.077 279.589 C 137.533 279.341,138.181 278.919,138.518 278.652 C 138.855 278.385,139.214 278.167,139.316 278.167 C 139.417 278.167,139.500 278.105,139.500 278.031 C 139.500 277.956,139.800 277.726,140.167 277.520 C 140.533 277.314,140.833 277.077,140.833 276.993 C 140.833 276.908,141.021 276.793,141.250 276.735 C 141.479 276.678,141.667 276.581,141.667 276.520 C 141.667 276.459,142.004 276.225,142.417 276.000 C 142.829 275.775,143.167 275.532,143.167 275.462 C 143.167 275.391,143.268 275.333,143.391 275.333 C 143.514 275.333,143.751 275.183,143.917 275.000 C 144.083 274.817,144.311 274.667,144.425 274.667 C 144.756 274.667,144.829 274.234,144.561 273.852 C 144.426 273.659,144.375 273.499,144.449 273.497 C 144.523 273.496,144.508 273.440,144.417 273.372 C 144.325 273.305,144.100 272.955,143.917 272.594 C 143.733 272.233,143.360 271.633,143.087 271.261 C 142.815 270.888,142.586 270.546,142.580 270.500 C 142.538 270.203,141.795 269.000,141.653 269.000 C 141.558 269.000,141.527 268.925,141.583 268.833 C 141.640 268.742,141.594 268.667,141.482 268.667 C 141.370 268.667,141.324 268.621,141.379 268.565 C 141.486 268.459,140.731 267.158,140.461 266.981 C 140.375 266.925,140.318 266.850,140.335 266.815 C 140.387 266.700,139.929 265.754,139.765 265.638 C 139.678 265.577,139.590 265.411,139.569 265.269 C 139.529 264.998,138.870 263.988,138.619 263.815 C 138.538 263.759,138.479 263.646,138.487 263.565 C 138.496 263.483,138.408 263.299,138.293 263.155 C 138.178 263.011,138.060 262.786,138.033 262.655 C 138.005 262.524,137.859 262.323,137.709 262.208 C 137.559 262.094,137.493 262.000,137.563 262.000 C 137.632 262.000,137.534 261.782,137.345 261.516 C 137.155 261.250,137.000 260.958,137.000 260.867 C 137.000 260.776,136.883 260.657,136.739 260.602 C 136.596 260.547,136.526 260.426,136.584 260.333 C 136.641 260.240,136.533 259.967,136.344 259.726 C 136.155 259.485,136.000 259.182,136.000 259.051 C 136.000 258.920,135.925 258.860,135.833 258.917 C 135.742 258.973,135.667 258.865,135.667 258.677 C 135.667 258.488,135.587 258.333,135.490 258.333 C 135.393 258.333,135.355 258.267,135.405 258.186 C 135.455 258.104,135.385 257.945,135.248 257.832 C 135.112 257.719,135.000 257.523,135.000 257.396 C 135.000 257.270,134.943 257.167,134.873 257.167 C 134.746 257.167,134.444 256.673,134.238 256.125 C 134.177 255.965,134.057 255.833,133.971 255.833 C 133.884 255.833,133.860 255.758,133.917 255.665 C 133.974 255.573,133.904 255.453,133.762 255.398 C 133.619 255.343,133.542 255.234,133.590 255.155 C 133.639 255.077,133.526 254.859,133.339 254.673 C 133.153 254.486,133.037 254.333,133.082 254.333 C 133.191 254.333,132.141 252.612,131.952 252.481 C 131.871 252.425,131.803 252.313,131.801 252.231 C 131.795 251.970,131.307 251.086,129.697 248.418 C 129.118 247.458,128.472 246.350,128.262 245.955 C 127.667 244.836,127.433 244.448,127.208 244.203 C 127.094 244.078,127.000 243.908,127.000 243.825 C 127.000 243.622,125.883 241.883,125.666 241.750 C 125.572 241.691,125.538 241.574,125.590 241.488 C 125.643 241.403,125.594 241.333,125.482 241.333 C 125.370 241.333,125.324 241.287,125.381 241.230 C 125.438 241.173,125.226 240.722,124.909 240.227 C 124.592 239.732,124.333 239.286,124.333 239.235 C 124.333 239.185,124.116 238.828,123.851 238.443 C 123.586 238.057,123.117 237.283,122.810 236.723 C 121.627 234.570,121.275 234.000,121.130 234.000 C 121.048 234.000,121.027 233.925,121.083 233.833 C 121.140 233.742,121.107 233.667,121.010 233.667 C 120.913 233.667,120.833 233.565,120.833 233.442 C 120.833 233.318,120.608 232.906,120.333 232.526 C 120.058 232.147,119.833 231.719,119.833 231.575 C 119.833 231.431,119.759 231.359,119.669 231.415 C 119.574 231.474,119.546 231.407,119.603 231.259 C 119.658 231.116,119.619 231.000,119.518 231.000 C 119.416 231.000,119.333 230.887,119.333 230.750 C 119.333 230.612,119.258 230.500,119.167 230.500 C 119.075 230.500,119.000 230.356,119.000 230.181 C 119.000 230.005,118.937 229.836,118.859 229.806 C 118.782 229.775,118.613 229.554,118.484 229.314 C 118.355 229.074,118.042 228.493,117.789 228.022 C 117.535 227.552,117.254 227.167,117.164 227.167 C 117.074 227.167,117.019 227.101,117.042 227.020 C 117.097 226.825,116.134 225.167,115.965 225.167 C 115.893 225.167,115.833 225.049,115.833 224.905 C 115.833 224.761,115.620 224.330,115.359 223.947 C 115.099 223.564,114.522 222.594,114.078 221.792 C 113.634 220.990,113.205 220.333,113.125 220.333 C 113.046 220.333,113.020 220.270,113.068 220.192 C 113.116 220.114,113.026 219.905,112.869 219.727 C 112.712 219.549,112.559 219.294,112.529 219.160 C 112.498 219.026,112.378 218.804,112.262 218.667 C 112.145 218.529,111.875 218.098,111.661 217.708 C 111.447 217.319,111.213 217.000,111.141 217.000 C 111.069 217.000,111.054 216.887,111.106 216.750 C 111.159 216.612,111.130 216.500,111.041 216.500 C 110.952 216.500,110.639 216.012,110.346 215.417 C 110.052 214.821,109.742 214.333,109.656 214.333 C 109.570 214.333,109.500 214.252,109.500 214.152 C 109.500 213.993,108.985 213.043,107.940 211.275 C 107.769 210.986,107.556 210.704,107.467 210.648 C 107.378 210.592,107.306 210.479,107.306 210.398 C 107.309 210.147,106.614 209.000,106.459 209.000 C 106.379 209.000,106.356 208.931,106.408 208.847 C 106.504 208.691,104.930 205.999,104.635 205.815 C 104.545 205.759,104.479 205.646,104.487 205.565 C 104.496 205.483,104.374 205.267,104.217 205.083 C 104.060 204.900,103.945 204.750,103.961 204.750 C 103.977 204.750,103.947 204.582,103.893 204.377 C 103.839 204.172,103.745 204.035,103.682 204.074 C 103.620 204.112,103.558 203.998,103.545 203.820 C 103.531 203.642,103.401 203.377,103.256 203.232 C 103.110 203.086,102.879 202.731,102.742 202.442 C 102.400 201.717,101.957 200.972,101.708 200.702 C 101.594 200.578,101.500 200.373,101.500 200.246 C 101.500 200.120,101.406 199.957,101.292 199.883 C 101.177 199.810,100.790 199.169,100.431 198.458 C 100.073 197.748,99.712 197.167,99.630 197.167 C 99.548 197.167,99.517 197.108,99.562 197.035 C 99.606 196.963,99.351 196.324,98.995 195.615 C 98.639 194.906,98.332 194.272,98.314 194.205 C 98.295 194.138,98.246 193.952,98.204 193.792 C 98.162 193.631,98.057 193.500,97.971 193.500 C 97.884 193.500,97.853 193.436,97.901 193.358 C 97.950 193.280,97.888 193.077,97.763 192.907 C 97.639 192.736,97.574 192.500,97.620 192.382 C 97.665 192.264,97.635 192.167,97.553 192.167 C 97.471 192.167,97.393 192.035,97.379 191.875 C 97.365 191.715,97.132 190.908,96.860 190.083 C 96.589 189.258,96.206 187.908,96.010 187.083 C 95.540 185.110,95.489 184.863,95.403 184.196 C 95.363 183.885,95.290 183.565,95.241 183.485 C 95.191 183.405,95.110 182.606,95.061 181.711 C 95.013 180.816,94.905 179.783,94.822 179.417 C 94.522 178.092,94.910 169.810,95.307 169.037 C 95.389 168.879,95.506 168.337,95.569 167.833 C 95.631 167.329,95.750 166.692,95.832 166.417 C 96.070 165.617,96.581 163.599,96.590 163.417 C 96.595 163.325,96.692 163.080,96.807 162.872 C 96.922 162.663,96.973 162.425,96.922 162.341 C 96.870 162.258,96.909 162.139,97.009 162.078 C 97.108 162.017,97.151 161.866,97.104 161.744 C 97.057 161.622,97.072 161.498,97.138 161.469 C 97.263 161.414,98.168 159.346,98.167 159.118 C 98.167 159.046,98.464 158.379,98.828 157.636 C 99.192 156.893,99.443 156.203,99.385 156.101 C 99.327 156.000,99.341 155.972,99.415 156.039 C 99.596 156.202,100.028 155.352,99.889 155.108 C 99.829 155.003,99.841 154.972,99.915 155.039 C 99.990 155.107,100.139 154.994,100.248 154.789 C 100.357 154.584,100.790 153.767,101.211 152.974 C 101.632 152.181,102.019 151.574,102.071 151.627 C 102.124 151.679,102.167 151.597,102.167 151.444 C 102.167 151.292,102.237 151.167,102.323 151.167 C 102.408 151.167,102.572 150.908,102.686 150.592 C 102.800 150.276,102.942 150.048,103.002 150.084 C 103.061 150.121,103.291 149.851,103.513 149.485 C 103.735 149.119,104.122 148.579,104.372 148.285 C 104.623 147.991,104.829 147.652,104.831 147.532 C 104.832 147.412,104.892 147.350,104.964 147.394 C 105.035 147.439,105.279 147.199,105.505 146.862 C 105.732 146.526,106.086 146.113,106.293 145.945 C 106.500 145.777,106.626 145.569,106.573 145.483 C 106.519 145.396,106.575 145.346,106.696 145.371 C 106.817 145.396,106.898 145.323,106.875 145.208 C 106.852 145.094,106.891 145.019,106.962 145.042 C 107.033 145.065,107.389 144.748,107.754 144.338 C 108.118 143.929,108.639 143.404,108.911 143.172 C 109.805 142.408,110.254 141.971,110.016 142.096 C 109.862 142.176,109.822 142.152,109.901 142.026 C 109.966 141.920,110.127 141.833,110.258 141.833 C 110.390 141.833,110.591 141.683,110.705 141.500 C 110.820 141.317,110.978 141.167,111.058 141.167 C 111.245 141.167,112.236 140.335,112.054 140.330 C 111.979 140.327,112.159 140.206,112.456 140.060 C 112.753 139.914,112.954 139.728,112.904 139.647 C 112.855 139.566,112.933 139.500,113.079 139.500 C 113.225 139.500,113.387 139.388,113.439 139.251 C 113.492 139.114,113.593 139.038,113.663 139.081 C 113.734 139.125,114.007 138.972,114.271 138.742 C 114.942 138.156,115.142 138.000,115.222 138.000 C 115.259 138.000,116.106 137.504,117.104 136.899 C 118.101 136.293,119.404 135.568,120.000 135.287 C 120.596 135.006,121.108 134.714,121.139 134.637 C 121.170 134.561,121.264 134.540,121.348 134.592 C 121.431 134.644,121.500 134.619,121.500 134.538 C 121.500 134.456,121.594 134.389,121.708 134.388 C 121.823 134.388,122.292 134.214,122.750 134.002 C 123.208 133.790,123.658 133.609,123.750 133.600 C 123.887 133.586,124.825 133.246,126.667 132.543 C 126.804 132.490,126.976 132.460,127.048 132.476 C 127.121 132.492,127.346 132.414,127.548 132.304 C 127.751 132.194,128.029 132.093,128.167 132.080 C 128.600 132.040,130.243 131.609,130.417 131.490 C 130.508 131.427,130.724 131.399,130.895 131.426 C 131.067 131.454,131.404 131.400,131.645 131.307 C 131.886 131.214,132.458 131.104,132.917 131.061 C 133.843 130.976,134.215 130.917,134.843 130.756 C 135.677 130.542,137.946 130.534,200.083 130.535 C 263.228 130.537,264.829 130.541,265.130 130.727 C 265.221 130.783,265.584 130.872,265.939 130.924 C 266.293 130.977,267.033 131.100,267.583 131.197 C 268.133 131.295,268.771 131.394,269.000 131.417 C 269.229 131.441,269.529 131.498,269.667 131.544 C 270.242 131.736,271.280 132.006,271.694 132.070 C 271.938 132.108,272.275 132.213,272.444 132.303 C 272.612 132.393,272.787 132.468,272.833 132.470 C 273.120 132.480,273.949 132.738,274.118 132.871 C 274.228 132.958,274.397 132.980,274.493 132.921 C 274.588 132.862,274.667 132.901,274.667 133.008 C 274.667 133.115,274.774 133.161,274.904 133.111 C 275.035 133.061,275.233 133.129,275.343 133.262 C 275.454 133.395,275.628 133.492,275.731 133.476 C 275.936 133.444,276.160 133.527,277.477 134.114 C 277.968 134.333,278.455 134.528,278.560 134.548 C 278.664 134.567,278.787 134.626,278.833 134.678 C 278.980 134.845,280.579 135.579,280.708 135.539 C 280.777 135.517,280.833 135.566,280.833 135.648 C 280.833 135.809,282.007 136.425,282.208 136.368 C 282.277 136.349,282.333 136.421,282.333 136.528 C 282.333 136.635,282.382 136.673,282.442 136.614 C 282.502 136.554,282.635 136.621,282.738 136.762 C 282.841 136.903,283.061 137.038,283.226 137.063 C 283.391 137.087,283.577 137.180,283.638 137.270 C 283.700 137.360,284.279 137.781,284.925 138.207 C 285.571 138.633,286.359 139.209,286.675 139.488 C 286.991 139.767,287.293 139.996,287.345 139.997 C 287.397 139.999,287.730 140.258,288.084 140.574 C 288.439 140.889,288.792 141.109,288.869 141.061 C 288.946 141.014,288.988 141.048,288.962 141.138 C 288.937 141.227,288.956 141.289,289.005 141.275 C 289.053 141.261,290.190 142.375,291.532 143.750 C 294.499 146.792,294.500 146.793,294.500 147.000 C 294.500 147.092,294.612 147.167,294.750 147.167 C 294.887 147.167,295.001 147.260,295.003 147.375 C 295.005 147.490,295.380 148.061,295.837 148.645 C 296.293 149.228,296.667 149.776,296.667 149.863 C 296.667 149.949,296.753 149.966,296.859 149.901 C 296.970 149.832,297.007 149.855,296.946 149.953 C 296.888 150.047,296.970 150.277,297.128 150.464 C 297.287 150.652,297.542 150.955,297.695 151.139 C 297.848 151.322,297.929 151.516,297.875 151.569 C 297.822 151.623,297.857 151.667,297.954 151.667 C 298.051 151.667,298.174 151.840,298.227 152.052 C 298.280 152.264,298.515 152.658,298.750 152.927 C 298.984 153.196,299.219 153.585,299.272 153.792 C 299.326 153.998,299.420 154.167,299.482 154.167 C 299.584 154.167,300.020 155.075,300.064 155.381 C 300.075 155.453,300.158 155.566,300.250 155.631 C 300.342 155.696,300.439 155.856,300.467 155.985 C 300.495 156.114,300.785 156.789,301.111 157.485 C 301.934 159.240,303.424 163.331,303.558 164.204 C 303.583 164.362,303.654 164.543,303.718 164.607 C 303.781 164.670,303.833 164.920,303.833 165.161 C 303.833 165.403,303.897 165.671,303.975 165.758 C 304.099 165.897,304.449 167.625,304.571 168.702 C 304.595 168.912,304.672 169.261,304.742 169.479 C 304.812 169.696,304.889 170.146,304.914 170.479 C 304.939 170.811,305.025 171.871,305.105 172.833 C 305.340 175.673,305.298 177.653,304.899 182.328 C 304.864 182.737,304.766 183.300,304.681 183.578 C 304.596 183.856,304.445 184.571,304.347 185.167 C 304.105 186.625,304.069 186.800,303.821 187.667 C 303.703 188.079,303.600 188.529,303.592 188.667 C 303.585 188.804,303.533 188.992,303.479 189.083 C 303.424 189.175,303.244 189.700,303.079 190.250 C 302.914 190.800,302.707 191.344,302.619 191.458 C 302.531 191.573,302.503 191.667,302.557 191.667 C 302.610 191.667,302.387 192.285,302.061 193.042 C 301.735 193.798,301.388 194.604,301.291 194.833 C 301.193 195.063,301.125 195.306,301.140 195.375 C 301.155 195.444,301.085 195.500,300.986 195.500 C 300.887 195.500,300.840 195.594,300.881 195.708 C 300.923 195.823,300.848 196.041,300.716 196.194 C 300.583 196.346,300.451 196.571,300.421 196.694 C 300.281 197.279,300.117 197.667,300.011 197.667 C 299.947 197.667,299.675 198.135,299.406 198.708 C 299.137 199.281,298.823 199.810,298.708 199.883 C 298.594 199.957,298.500 200.093,298.500 200.187 C 298.500 200.348,297.198 202.652,297.005 202.833 C 296.815 203.012,296.500 203.674,296.500 203.897 C 296.500 204.026,296.383 204.176,296.239 204.231 C 296.096 204.286,296.026 204.407,296.083 204.499 C 296.140 204.591,296.119 204.667,296.037 204.667 C 295.890 204.667,295.553 205.272,295.537 205.565 C 295.532 205.646,295.465 205.759,295.388 205.815 C 295.217 205.939,294.333 207.287,294.333 207.424 C 294.333 207.478,294.139 207.776,293.902 208.087 C 293.665 208.398,293.520 208.731,293.579 208.826 C 293.638 208.922,293.621 209.000,293.541 209.000 C 293.372 209.000,292.571 210.354,292.628 210.542 C 292.649 210.610,292.587 210.667,292.490 210.667 C 292.393 210.667,292.360 210.742,292.417 210.833 C 292.473 210.925,292.444 211.000,292.352 211.000 C 292.260 211.000,292.087 211.178,291.967 211.395 C 291.137 212.903,290.952 213.260,290.964 213.333 C 290.971 213.379,290.869 213.477,290.738 213.550 C 290.607 213.623,290.500 213.802,290.500 213.948 C 290.500 214.094,290.383 214.299,290.241 214.403 C 290.098 214.507,289.964 214.703,289.943 214.838 C 289.921 214.973,289.783 215.271,289.636 215.500 C 288.770 216.851,287.955 218.277,287.950 218.451 C 287.947 218.562,287.887 218.617,287.818 218.574 C 287.703 218.503,287.507 218.896,287.502 219.208 C 287.501 219.277,287.347 219.486,287.161 219.673 C 286.974 219.859,286.866 220.084,286.920 220.173 C 286.975 220.261,286.954 220.333,286.873 220.333 C 286.792 220.333,286.404 220.897,286.009 221.586 C 285.615 222.275,285.226 222.880,285.144 222.931 C 285.062 222.982,285.043 223.101,285.102 223.197 C 285.161 223.292,285.140 223.418,285.055 223.477 C 284.764 223.678,284.167 224.635,284.167 224.901 C 284.167 225.047,284.107 225.167,284.035 225.167 C 283.887 225.167,282.954 226.704,283.023 226.833 C 283.048 226.879,282.922 227.087,282.742 227.296 C 282.343 227.761,281.728 228.758,281.460 229.375 C 281.350 229.627,281.202 229.833,281.130 229.833 C 281.059 229.833,281.000 229.983,281.000 230.167 C 281.000 230.350,280.944 230.500,280.875 230.500 C 280.806 230.500,280.564 230.856,280.336 231.292 C 280.109 231.727,279.669 232.443,279.358 232.882 C 279.046 233.321,278.832 233.721,278.882 233.771 C 278.932 233.821,278.826 234.008,278.647 234.187 C 278.468 234.366,278.362 234.578,278.412 234.659 C 278.461 234.739,278.445 234.830,278.376 234.861 C 278.213 234.933,277.647 235.777,277.333 236.417 C 277.198 236.692,276.768 237.424,276.377 238.043 C 275.986 238.663,275.667 239.282,275.667 239.418 C 275.667 239.555,275.602 239.667,275.523 239.667 C 275.444 239.667,275.200 240.023,274.981 240.458 C 274.763 240.894,274.521 241.296,274.444 241.352 C 274.368 241.408,274.330 241.499,274.361 241.555 C 274.392 241.610,274.285 241.809,274.125 241.997 C 273.965 242.184,273.833 242.411,273.833 242.502 C 273.833 242.593,273.754 242.667,273.657 242.667 C 273.560 242.667,273.527 242.742,273.583 242.833 C 273.640 242.925,273.615 243.000,273.529 243.000 C 273.442 243.000,273.239 243.281,273.078 243.625 C 272.916 243.969,272.736 244.287,272.677 244.333 C 272.619 244.379,272.349 244.848,272.077 245.375 C 271.806 245.901,271.527 246.333,271.458 246.333 C 271.390 246.333,271.333 246.435,271.333 246.560 C 271.333 246.685,271.144 247.066,270.912 247.408 C 270.680 247.750,270.474 248.116,270.453 248.222 C 270.433 248.329,270.327 248.491,270.217 248.583 C 270.108 248.675,269.995 248.860,269.967 248.993 C 269.940 249.127,269.797 249.372,269.652 249.538 C 269.506 249.704,269.284 250.044,269.159 250.294 C 269.034 250.545,268.839 250.862,268.727 251.000 C 268.615 251.137,268.525 251.287,268.527 251.333 C 268.535 251.509,268.078 252.427,267.879 252.634 C 267.560 252.969,266.452 254.891,266.448 255.118 C 266.446 255.228,266.340 255.359,266.212 255.408 C 266.084 255.457,266.026 255.573,266.083 255.665 C 266.140 255.758,266.107 255.833,266.010 255.833 C 265.913 255.833,265.833 255.946,265.833 256.083 C 265.833 256.221,265.758 256.333,265.667 256.333 C 265.575 256.333,265.500 256.480,265.500 256.658 C 265.500 256.837,265.406 257.043,265.292 257.117 C 265.056 257.267,264.527 258.102,264.387 258.542 C 264.336 258.702,264.228 258.833,264.147 258.833 C 264.066 258.833,263.998 258.927,263.996 259.042 C 263.994 259.156,263.846 259.438,263.667 259.667 C 263.487 259.896,263.339 260.217,263.337 260.380 C 263.335 260.544,263.221 260.720,263.083 260.773 C 262.946 260.826,262.833 260.955,262.833 261.059 C 262.832 261.164,262.611 261.583,262.342 261.989 C 262.072 262.395,261.889 262.789,261.936 262.864 C 261.982 262.939,261.939 263.000,261.841 263.000 C 261.743 263.000,261.495 263.356,261.290 263.792 C 261.084 264.227,260.819 264.660,260.699 264.755 C 260.579 264.849,260.461 265.036,260.437 265.171 C 260.413 265.306,260.233 265.679,260.038 266.000 C 259.843 266.321,259.665 266.658,259.642 266.750 C 259.620 266.842,259.467 267.062,259.301 267.240 C 259.135 267.417,259.000 267.637,259.000 267.727 C 259.000 267.817,258.893 268.009,258.763 268.154 C 258.633 268.298,258.502 268.523,258.471 268.653 C 258.441 268.783,258.283 269.029,258.119 269.201 C 257.955 269.372,257.866 269.584,257.920 269.673 C 257.975 269.761,257.957 269.833,257.880 269.833 C 257.803 269.833,257.648 270.040,257.535 270.292 C 257.422 270.544,257.037 271.161,256.679 271.664 C 256.321 272.167,256.064 272.635,256.107 272.706 C 256.151 272.776,256.107 272.833,256.010 272.833 C 255.913 272.833,255.833 272.996,255.833 273.194 C 255.833 273.393,255.782 273.504,255.719 273.442 C 255.657 273.379,255.508 273.535,255.389 273.789 C 255.270 274.043,255.097 274.381,255.003 274.542 C 254.587 275.256,254.481 275.451,254.207 276.000 C 254.047 276.321,253.836 276.636,253.737 276.700 C 253.638 276.765,253.416 277.140,253.242 277.534 C 253.068 277.928,252.883 278.287,252.830 278.333 C 252.553 278.573,252.000 279.502,252.000 279.726 C 252.000 279.867,251.884 280.048,251.742 280.128 C 251.600 280.207,251.472 280.434,251.457 280.632 C 251.442 280.830,251.328 281.030,251.204 281.078 C 251.080 281.125,251.026 281.240,251.083 281.332 C 251.140 281.424,251.119 281.500,251.036 281.500 C 250.882 281.500,249.967 283.071,250.006 283.269 C 250.018 283.330,249.962 283.425,249.880 283.481 C 249.703 283.604,248.919 284.867,248.918 285.033 C 248.917 285.098,248.823 285.244,248.708 285.358 C 248.594 285.473,248.500 285.656,248.500 285.766 C 248.500 285.875,248.394 286.005,248.265 286.055 C 248.135 286.104,247.933 286.412,247.815 286.739 C 247.696 287.066,247.540 287.333,247.467 287.333 C 247.393 287.333,247.333 287.446,247.333 287.583 C 247.333 287.721,247.246 287.833,247.139 287.833 C 247.032 287.833,246.991 287.880,247.048 287.937 C 247.105 287.994,246.971 288.306,246.750 288.631 C 246.529 288.956,246.387 289.285,246.434 289.361 C 246.481 289.438,246.446 289.500,246.355 289.500 C 246.265 289.500,246.058 289.800,245.897 290.167 C 245.735 290.533,245.538 290.833,245.458 290.833 C 245.379 290.833,245.360 290.908,245.417 291.000 C 245.473 291.092,245.451 291.167,245.366 291.167 C 245.282 291.167,245.034 291.521,244.815 291.954 C 244.596 292.387,244.328 292.838,244.219 292.955 C 244.111 293.073,243.974 293.318,243.916 293.501 C 243.858 293.684,243.741 293.833,243.655 293.833 C 243.570 293.833,243.500 293.935,243.500 294.060 C 243.500 294.185,243.312 294.563,243.083 294.901 C 242.854 295.239,242.667 295.636,242.667 295.785 C 242.667 295.934,242.615 296.004,242.553 295.942 C 242.459 295.848,242.022 296.638,242.010 296.923 C 242.008 296.969,241.858 297.166,241.676 297.362 C 241.494 297.557,241.384 297.781,241.432 297.859 C 241.480 297.936,241.456 298.000,241.379 298.000 C 241.212 298.000,240.573 299.028,240.628 299.208 C 240.649 299.277,240.587 299.333,240.490 299.333 C 240.393 299.333,240.360 299.408,240.417 299.500 C 240.473 299.592,240.436 299.667,240.334 299.667 C 240.233 299.667,240.071 299.892,239.975 300.167 C 239.879 300.442,239.738 300.667,239.662 300.667 C 239.585 300.667,239.477 300.811,239.421 300.987 C 239.365 301.164,239.137 301.576,238.914 301.904 C 238.692 302.232,238.548 302.500,238.595 302.500 C 238.642 302.500,238.601 302.594,238.504 302.708 C 237.921 303.401,237.170 304.436,237.168 304.549 C 237.167 304.622,236.998 304.863,236.792 305.083 C 236.585 305.304,236.252 305.695,236.050 305.951 C 235.849 306.207,235.455 306.708,235.175 307.065 C 234.896 307.421,234.667 307.777,234.667 307.856 C 234.667 307.935,234.563 308.000,234.436 308.000 C 234.309 308.000,234.093 308.169,233.956 308.375 C 233.438 309.157,230.718 311.755,229.085 313.028 C 228.381 313.577,228.052 313.859,227.579 314.316 C 227.352 314.536,227.167 314.668,227.167 314.609 C 227.167 314.507,226.715 314.843,226.223 315.312 C 226.091 315.438,225.611 315.726,225.158 315.952 C 224.704 316.178,224.333 316.444,224.333 316.543 C 224.333 316.641,224.283 316.672,224.222 316.611 C 224.161 316.549,223.992 316.605,223.847 316.734 C 223.562 316.989,222.523 317.580,220.877 318.423 C 220.305 318.717,219.723 319.050,219.585 319.165 C 219.447 319.280,219.333 319.312,219.333 319.237 C 219.333 319.162,219.243 319.190,219.133 319.300 C 219.023 319.410,218.813 319.500,218.667 319.500 C 218.520 319.500,218.306 319.594,218.192 319.708 C 218.077 319.823,217.931 319.919,217.867 319.921 C 217.529 319.933,215.500 320.750,215.500 320.874 C 215.500 320.954,215.422 320.971,215.326 320.912 C 215.230 320.853,215.041 320.897,214.905 321.009 C 214.770 321.122,214.613 321.169,214.557 321.113 C 214.502 321.057,214.297 321.098,214.103 321.204 C 213.909 321.310,213.637 321.413,213.500 321.433 C 213.002 321.507,212.495 321.650,212.294 321.774 C 212.181 321.844,211.975 321.917,211.836 321.936 C 210.900 322.067,210.484 322.157,210.305 322.268 C 210.192 322.337,209.946 322.413,209.758 322.436 C 208.643 322.571,208.147 322.647,207.250 322.820 C 206.700 322.926,205.817 323.043,205.288 323.080 C 204.759 323.117,204.169 323.196,203.978 323.257 C 203.515 323.404,197.311 323.413,196.250 323.268 C 195.792 323.205,195.079 323.122,194.667 323.082 C 193.640 322.984,192.801 322.853,191.353 322.566 C 190.677 322.431,190.085 322.359,190.040 322.405 C 189.994 322.451,189.811 322.411,189.634 322.316 C 189.457 322.221,189.150 322.112,188.952 322.074 C 188.755 322.036,188.087 321.848,187.468 321.657 C 186.849 321.465,186.265 321.356,186.171 321.414 C 186.077 321.472,186.000 321.440,186.000 321.343 C 186.000 321.246,185.817 321.167,185.593 321.167 C 185.369 321.167,185.146 321.101,185.097 321.022 C 185.009 320.880,184.041 320.600,183.792 320.644 C 183.723 320.657,183.667 320.592,183.667 320.500 C 183.667 320.408,183.532 320.333,183.367 320.333 C 183.202 320.333,182.994 320.260,182.905 320.171 C 182.816 320.082,182.594 319.986,182.413 319.957 C 182.232 319.929,181.258 319.499,180.250 319.002 C 179.242 318.505,178.360 318.114,178.292 318.132 C 178.223 318.151,178.167 318.100,178.167 318.019 C 178.167 317.938,177.923 317.749,177.625 317.600 C 177.327 317.451,176.783 317.143,176.417 316.916 C 176.050 316.688,175.637 316.452,175.500 316.390 C 175.362 316.328,174.977 316.065,174.643 315.806 C 174.309 315.546,173.987 315.333,173.927 315.333 C 173.868 315.333,173.729 315.258,173.618 315.167 C 173.507 315.076,172.854 314.581,172.167 314.068 C 171.479 313.556,170.803 313.012,170.665 312.860 C 170.526 312.708,170.040 312.283,169.584 311.917 C 169.128 311.550,168.491 310.979,168.169 310.648 L 167.583 310.046 166.568 310.648 C 166.010 310.979,165.447 311.274,165.318 311.304 C 165.189 311.334,165.058 311.428,165.028 311.513 C 164.997 311.597,164.871 311.667,164.748 311.667 C 164.625 311.667,164.409 311.782,164.268 311.923 C 164.127 312.063,163.990 312.172,163.964 312.164 C 163.795 312.111,162.667 312.704,162.667 312.845 C 162.667 312.941,162.598 312.977,162.514 312.925 C 162.430 312.874,162.337 312.888,162.306 312.957 C 162.275 313.027,161.756 313.327,161.152 313.624 C 160.547 313.922,159.880 314.315,159.668 314.499 C 159.456 314.683,159.181 314.833,159.058 314.833 C 158.934 314.833,158.833 314.891,158.833 314.962 C 158.833 315.033,158.571 315.232,158.250 315.405 C 157.929 315.578,157.667 315.787,157.667 315.869 C 157.667 315.952,157.607 315.983,157.533 315.937 C 157.460 315.892,157.066 316.121,156.658 316.447 C 156.250 316.772,155.676 317.154,155.382 317.297 C 155.088 317.439,154.886 317.618,154.934 317.694 C 154.981 317.771,154.907 317.833,154.768 317.833 C 154.630 317.833,154.326 318.011,154.092 318.228 L 153.666 318.622 154.291 319.343 C 155.353 320.567,157.692 322.885,158.915 323.926 C 159.556 324.471,160.163 324.992,160.265 325.083 C 161.067 325.804,162.070 326.569,162.124 326.500 C 162.160 326.454,162.264 326.548,162.353 326.708 C 162.443 326.869,162.584 327.000,162.667 327.000 C 162.750 327.000,163.002 327.169,163.227 327.375 C 163.992 328.078,165.993 329.459,166.357 329.536 C 166.482 329.562,166.681 329.715,166.801 329.875 C 166.921 330.035,167.127 330.167,167.259 330.167 C 167.392 330.167,167.500 330.240,167.500 330.330 C 167.500 330.420,167.688 330.541,167.917 330.598 C 168.146 330.656,168.333 330.753,168.333 330.815 C 168.333 330.921,169.083 331.255,169.398 331.289 C 169.479 331.298,169.592 331.378,169.648 331.466 C 169.704 331.555,170.200 331.870,170.750 332.166 C 171.300 332.461,171.825 332.750,171.917 332.807 C 172.008 332.865,172.121 332.916,172.167 332.921 C 172.213 332.926,172.813 333.204,173.500 333.538 C 174.880 334.210,175.663 334.543,175.917 334.568 C 176.008 334.577,176.252 334.681,176.458 334.798 C 176.665 334.916,176.834 334.953,176.836 334.881 C 176.837 334.809,176.894 334.834,176.961 334.936 C 177.028 335.039,177.767 335.354,178.602 335.638 C 179.438 335.921,180.300 336.227,180.519 336.316 C 180.738 336.406,181.479 336.638,182.167 336.832 C 182.854 337.025,183.815 337.301,184.301 337.444 C 184.787 337.587,185.230 337.658,185.286 337.603 C 185.341 337.548,185.474 337.576,185.582 337.666 C 185.690 337.755,186.372 337.952,187.097 338.104 C 188.374 338.370,188.936 338.456,190.167 338.574 C 190.487 338.605,191.050 338.710,191.417 338.807 C 191.783 338.905,192.796 339.022,193.667 339.068 C 194.537 339.114,195.775 339.208,196.417 339.278 C 197.915 339.441,202.029 339.434,203.750 339.265 C 205.392 339.105,206.766 339.007,207.386 339.007 C 207.644 339.007,208.144 338.929,208.496 338.834 C 208.849 338.739,209.538 338.623,210.027 338.575 C 211.066 338.473,211.299 338.434,211.750 338.288 C 212.113 338.170,212.844 338.018,213.500 337.924 C 214.297 337.810,216.063 337.322,216.255 337.163 C 216.361 337.075,216.493 337.049,216.550 337.105 C 216.606 337.162,216.787 337.150,216.951 337.078 C 217.116 337.007,217.438 336.918,217.667 336.881 C 217.896 336.843,218.108 336.742,218.139 336.655 C 218.170 336.569,218.267 336.542,218.355 336.597 C 218.443 336.651,218.616 336.611,218.740 336.509 C 218.864 336.406,219.029 336.336,219.107 336.354 C 219.268 336.390,219.767 336.223,220.215 335.982 C 220.379 335.894,220.577 335.861,220.655 335.909 C 220.732 335.957,220.888 335.885,221.000 335.750 C 221.112 335.615,221.263 335.540,221.334 335.584 C 221.511 335.693,223.000 335.130,223.000 334.954 C 223.000 334.877,223.080 334.863,223.177 334.923 C 223.275 334.983,223.507 334.894,223.695 334.725 C 223.882 334.555,224.067 334.442,224.106 334.473 C 224.248 334.586,225.877 333.914,225.955 333.711 C 225.999 333.596,226.095 333.539,226.168 333.584 C 226.321 333.678,228.020 332.847,228.206 332.587 C 228.273 332.493,228.329 332.475,228.331 332.546 C 228.335 332.776,231.854 330.776,231.972 330.475 C 232.003 330.397,232.134 330.333,232.264 330.333 C 232.394 330.333,232.500 330.254,232.500 330.157 C 232.500 330.060,232.575 330.027,232.667 330.083 C 232.758 330.140,232.833 330.122,232.833 330.043 C 232.833 329.965,233.091 329.807,233.407 329.693 C 233.722 329.579,234.207 329.274,234.484 329.015 C 234.761 328.756,235.028 328.584,235.077 328.633 C 235.127 328.682,235.167 328.643,235.167 328.546 C 235.167 328.449,235.357 328.322,235.590 328.263 C 235.823 328.205,235.970 328.086,235.917 328.000 C 235.863 327.914,236.010 327.795,236.243 327.737 C 236.476 327.678,236.667 327.569,236.667 327.493 C 236.667 327.418,236.806 327.312,236.976 327.258 C 237.146 327.204,237.502 326.938,237.767 326.668 C 238.033 326.397,238.317 326.174,238.399 326.171 C 238.480 326.169,238.780 325.923,239.065 325.625 C 239.350 325.327,239.628 325.083,239.683 325.083 C 239.998 325.083,243.500 321.754,243.500 321.455 C 243.500 321.357,243.538 321.316,243.584 321.362 C 243.672 321.450,245.000 320.289,245.000 320.126 C 245.000 320.075,245.359 319.667,245.798 319.219 C 246.237 318.771,246.818 318.110,247.090 317.750 C 247.361 317.391,247.827 316.843,248.125 316.534 C 248.423 316.225,248.667 315.873,248.667 315.754 C 248.667 315.634,248.790 315.488,248.941 315.431 C 249.091 315.373,249.167 315.278,249.108 315.219 C 249.050 315.161,249.149 315.010,249.329 314.884 C 249.650 314.659,250.833 312.994,250.833 312.767 C 250.833 312.703,251.022 312.463,251.253 312.232 C 251.484 312.001,251.638 311.755,251.595 311.686 C 251.553 311.617,251.664 311.455,251.842 311.327 C 252.021 311.198,252.167 311.027,252.167 310.947 C 252.167 310.867,252.335 310.566,252.542 310.278 C 252.748 309.990,252.999 309.604,253.100 309.419 C 253.201 309.234,253.651 308.480,254.100 307.744 C 254.549 307.007,255.142 305.960,255.417 305.418 C 255.692 304.876,255.974 304.354,256.044 304.258 C 256.712 303.342,257.521 301.923,257.488 301.725 C 257.478 301.664,257.589 301.547,257.735 301.465 C 257.881 301.383,258.000 301.208,258.000 301.075 C 258.000 300.942,258.150 300.683,258.333 300.500 C 258.517 300.317,258.667 300.054,258.667 299.917 C 258.667 299.779,258.746 299.667,258.843 299.667 C 258.940 299.667,258.973 299.592,258.917 299.500 C 258.860 299.408,258.898 299.333,259.000 299.333 C 259.102 299.333,259.146 299.268,259.097 299.189 C 259.048 299.110,259.159 298.908,259.343 298.741 C 259.528 298.574,259.641 298.339,259.594 298.219 C 259.548 298.098,259.566 298.000,259.634 298.000 C 259.701 298.000,259.941 297.663,260.167 297.250 C 260.392 296.837,260.629 296.500,260.694 296.500 C 260.798 296.500,261.086 295.812,261.024 295.708 C 261.011 295.685,261.153 295.514,261.339 295.327 C 261.526 295.141,261.634 294.916,261.580 294.827 C 261.525 294.739,261.547 294.667,261.628 294.667 C 261.709 294.667,262.106 294.067,262.510 293.333 C 262.914 292.600,263.307 292.000,263.382 292.000 C 263.458 292.000,263.473 291.925,263.417 291.833 C 263.360 291.742,263.393 291.667,263.490 291.667 C 263.587 291.667,263.667 291.584,263.667 291.484 C 263.667 291.384,263.812 291.097,263.990 290.847 C 264.168 290.598,264.337 290.289,264.365 290.161 C 264.393 290.034,264.548 289.781,264.708 289.600 C 264.869 289.419,265.000 289.181,265.000 289.072 C 265.000 288.963,265.112 288.781,265.248 288.668 C 265.385 288.555,265.455 288.396,265.405 288.314 C 265.355 288.233,265.398 288.167,265.500 288.167 C 265.602 288.167,265.644 288.098,265.592 288.014 C 265.540 287.930,265.566 287.837,265.648 287.806 C 265.833 287.737,266.763 286.253,267.015 285.625 C 267.116 285.373,267.267 285.167,267.350 285.167 C 267.432 285.167,267.500 285.064,267.500 284.939 C 267.500 284.814,267.655 284.515,267.844 284.274 C 268.033 284.033,268.142 283.761,268.084 283.668 C 268.027 283.576,268.041 283.499,268.115 283.497 C 268.189 283.495,268.475 283.114,268.750 282.650 C 269.025 282.185,269.325 281.715,269.417 281.605 C 269.508 281.495,269.803 280.995,270.072 280.494 C 270.341 279.993,271.081 278.721,271.717 277.667 C 272.352 276.612,272.875 275.656,272.880 275.542 C 272.885 275.427,272.941 275.333,273.005 275.333 C 273.068 275.333,273.300 274.977,273.519 274.542 C 273.737 274.106,273.992 273.695,274.083 273.628 C 274.175 273.560,274.187 273.504,274.110 273.503 C 274.033 273.501,274.172 273.260,274.418 272.968 C 274.665 272.675,274.935 272.281,275.019 272.093 C 275.103 271.904,275.319 271.525,275.500 271.250 C 275.681 270.975,275.906 270.572,276.001 270.355 C 276.096 270.138,276.322 269.772,276.503 269.541 C 276.685 269.311,276.833 268.977,276.833 268.801 C 276.833 268.625,276.908 268.527,277.000 268.583 C 277.092 268.640,277.167 268.580,277.167 268.450 C 277.167 268.320,277.352 267.940,277.578 267.607 C 277.805 267.273,277.936 266.999,277.870 266.997 C 277.804 266.996,277.835 266.940,277.939 266.872 C 278.141 266.742,278.713 265.810,280.164 263.250 C 280.346 262.929,280.453 262.667,280.402 262.667 C 280.351 262.667,280.426 262.550,280.569 262.407 C 280.917 262.059,282.047 260.135,282.052 259.882 C 282.054 259.772,282.160 259.641,282.288 259.592 C 282.416 259.543,282.474 259.427,282.417 259.335 C 282.360 259.242,282.398 259.167,282.500 259.167 C 282.602 259.167,282.646 259.102,282.597 259.022 C 282.548 258.943,282.656 258.744,282.837 258.580 C 283.018 258.416,283.167 258.181,283.167 258.058 C 283.167 257.934,283.242 257.833,283.333 257.833 C 283.425 257.833,283.502 257.740,283.504 257.625 C 283.506 257.510,283.654 257.229,283.833 257.000 C 284.013 256.771,284.161 256.440,284.163 256.264 C 284.165 256.088,284.216 255.993,284.275 256.053 C 284.335 256.113,284.472 255.994,284.579 255.789 C 284.686 255.584,284.874 255.229,284.996 255.000 C 285.119 254.771,285.277 254.471,285.348 254.333 C 285.420 254.196,285.822 253.535,286.242 252.865 C 286.663 252.195,287.024 251.561,287.045 251.455 C 287.066 251.349,287.212 251.117,287.369 250.940 C 287.526 250.762,287.616 250.553,287.568 250.475 C 287.520 250.397,287.557 250.333,287.650 250.333 C 287.743 250.333,288.066 249.827,288.368 249.208 C 288.670 248.590,288.963 248.046,289.020 248.000 C 289.236 247.826,290.552 245.574,290.554 245.375 C 290.555 245.260,290.613 245.167,290.683 245.167 C 290.753 245.167,290.856 245.026,290.910 244.853 C 290.965 244.681,291.156 244.371,291.335 244.165 C 291.514 243.959,291.624 243.733,291.581 243.663 C 291.537 243.592,291.614 243.492,291.751 243.439 C 291.888 243.387,292.002 243.248,292.004 243.130 C 292.006 243.013,292.154 242.729,292.333 242.500 C 292.513 242.271,292.661 241.948,292.663 241.782 C 292.665 241.616,292.742 241.527,292.833 241.583 C 292.925 241.640,293.000 241.580,293.000 241.449 C 293.000 241.318,293.155 241.015,293.344 240.774 C 293.533 240.533,293.642 240.261,293.584 240.168 C 293.527 240.076,293.552 240.000,293.640 240.000 C 293.827 240.000,294.546 238.849,294.552 238.542 C 294.554 238.427,294.619 238.333,294.697 238.333 C 294.774 238.333,295.005 237.977,295.210 237.542 C 295.416 237.106,295.672 236.656,295.780 236.541 C 295.888 236.426,296.145 235.995,296.351 235.583 C 296.557 235.171,296.792 234.833,296.873 234.833 C 296.954 234.833,296.977 234.764,296.924 234.678 C 296.871 234.593,296.905 234.475,297.000 234.417 C 297.095 234.358,297.129 234.240,297.076 234.155 C 297.023 234.070,297.060 234.000,297.157 234.000 C 297.254 234.000,297.333 233.875,297.333 233.722 C 297.333 233.569,297.381 233.492,297.440 233.551 C 297.570 233.681,298.159 232.634,298.054 232.458 C 298.014 232.390,298.060 232.333,298.157 232.333 C 298.254 232.333,298.333 232.221,298.333 232.083 C 298.333 231.946,298.421 231.833,298.528 231.833 C 298.635 231.833,298.677 231.788,298.621 231.732 C 298.566 231.677,298.654 231.488,298.817 231.313 C 299.094 231.015,299.337 230.590,299.567 230.000 C 299.621 229.862,299.959 229.339,300.319 228.838 C 300.679 228.336,300.937 227.867,300.894 227.796 C 300.850 227.725,300.893 227.667,300.990 227.667 C 301.087 227.667,301.167 227.572,301.167 227.455 C 301.167 227.339,301.352 226.972,301.578 226.639 C 301.804 226.307,302.010 225.939,302.036 225.823 C 302.062 225.706,302.215 225.474,302.375 225.306 C 302.535 225.138,302.667 224.887,302.667 224.750 C 302.667 224.612,302.746 224.500,302.843 224.500 C 302.940 224.500,302.973 224.425,302.917 224.333 C 302.860 224.242,302.898 224.167,303.000 224.167 C 303.102 224.167,303.140 224.092,303.083 224.000 C 303.027 223.908,303.042 223.833,303.117 223.833 C 303.295 223.833,304.096 222.520,304.042 222.320 C 304.019 222.235,304.071 222.167,304.158 222.167 C 304.245 222.167,304.513 221.773,304.754 221.292 C 304.996 220.810,305.307 220.290,305.446 220.136 C 305.585 219.981,305.643 219.763,305.574 219.651 C 305.494 219.522,305.518 219.492,305.641 219.567 C 305.763 219.643,305.833 219.558,305.833 219.333 C 305.833 219.139,305.892 219.017,305.965 219.061 C 306.078 219.132,306.485 218.420,306.544 218.047 C 306.555 217.975,306.698 217.774,306.860 217.600 C 307.022 217.425,307.116 217.219,307.068 217.141 C 307.020 217.064,307.058 217.000,307.153 217.000 C 307.335 217.000,307.926 216.003,307.868 215.792 C 307.849 215.723,307.913 215.667,308.010 215.667 C 308.107 215.667,308.144 215.598,308.092 215.514 C 308.040 215.430,308.055 215.337,308.124 215.306 C 308.297 215.229,309.024 214.113,309.665 212.938 C 309.959 212.399,310.417 211.590,310.683 211.139 C 310.949 210.688,311.167 210.247,311.167 210.159 C 311.167 210.072,311.246 210.000,311.343 210.000 C 311.440 210.000,311.473 209.925,311.417 209.833 C 311.360 209.742,311.398 209.667,311.500 209.667 C 311.602 209.667,311.640 209.592,311.583 209.500 C 311.527 209.408,311.542 209.333,311.617 209.333 C 311.786 209.333,312.538 208.141,312.499 207.935 C 312.484 207.854,312.534 207.741,312.611 207.685 C 312.687 207.629,312.832 207.433,312.932 207.250 C 313.032 207.067,313.353 206.485,313.645 205.958 C 313.938 205.431,314.118 204.999,314.047 204.997 C 313.975 204.996,313.992 204.940,314.083 204.872 C 314.175 204.805,314.344 204.581,314.458 204.375 C 314.573 204.169,314.739 203.869,314.828 203.708 C 315.282 202.886,316.076 201.057,316.058 200.875 C 316.046 200.760,316.104 200.667,316.185 200.667 C 316.267 200.667,316.333 200.601,316.333 200.520 C 316.333 200.440,316.460 200.084,316.615 199.729 C 316.770 199.374,316.902 199.046,316.909 199.000 C 316.916 198.954,316.981 198.823,317.054 198.708 C 317.127 198.594,317.144 198.431,317.092 198.348 C 317.040 198.264,317.071 198.170,317.161 198.139 C 317.250 198.108,317.352 197.933,317.386 197.750 C 317.421 197.567,317.538 197.192,317.646 196.917 C 317.754 196.642,317.908 196.229,317.989 196.000 C 318.069 195.771,318.192 195.433,318.262 195.250 C 318.408 194.864,318.377 194.959,318.665 194.000 C 319.203 192.203,319.359 191.606,319.389 191.222 C 319.404 191.024,319.473 190.805,319.542 190.736 C 319.610 190.667,319.667 190.431,319.667 190.211 C 319.667 189.991,319.737 189.679,319.824 189.518 C 319.910 189.356,320.017 188.855,320.060 188.404 C 320.104 187.953,320.220 187.235,320.317 186.808 C 320.414 186.382,320.536 185.601,320.587 185.073 C 320.639 184.545,320.707 184.068,320.739 184.015 C 321.155 183.321,321.220 170.302,320.813 169.206 C 320.736 168.999,320.634 168.362,320.587 167.790 C 320.539 167.218,320.459 166.563,320.408 166.333 C 320.358 166.104,320.243 165.429,320.152 164.833 C 320.061 164.237,319.907 163.563,319.810 163.333 C 319.713 163.104,319.600 162.692,319.559 162.417 C 319.429 161.554,319.365 161.275,319.083 160.333 C 318.932 159.829,318.730 159.079,318.635 158.667 C 318.541 158.254,318.359 157.798,318.231 157.653 C 318.104 157.508,318.038 157.351,318.085 157.304 C 318.132 157.256,318.044 156.925,317.888 156.567 C 317.733 156.209,317.622 155.823,317.643 155.708 C 317.664 155.594,317.603 155.500,317.507 155.500 C 317.412 155.500,317.348 155.444,317.365 155.375 C 317.422 155.150,317.143 154.167,317.022 154.167 C 316.957 154.167,316.892 154.005,316.877 153.807 C 316.862 153.609,316.790 153.402,316.717 153.348 C 316.643 153.294,316.563 153.125,316.538 152.972 C 316.512 152.820,316.254 152.182,315.964 151.556 C 315.673 150.929,315.425 150.379,315.411 150.333 C 315.280 149.888,314.300 148.000,314.200 148.000 C 314.129 148.000,314.058 147.833,314.043 147.628 C 314.028 147.424,313.900 147.173,313.760 147.070 C 313.620 146.968,313.554 146.835,313.614 146.775 C 313.673 146.716,313.635 146.667,313.528 146.667 C 313.421 146.667,313.333 146.549,313.333 146.405 C 313.333 146.108,312.734 145.030,311.799 143.646 C 311.451 143.131,311.167 142.625,311.167 142.521 C 311.167 142.418,311.104 142.333,311.027 142.333 C 310.950 142.333,310.800 142.143,310.694 141.910 C 310.588 141.678,310.424 141.397,310.330 141.285 C 310.235 141.174,309.730 140.521,309.207 139.833 C 308.685 139.146,308.199 138.558,308.128 138.528 C 308.058 138.497,308.000 138.370,308.000 138.246 C 308.000 138.121,307.863 137.921,307.695 137.801 C 307.527 137.681,307.249 137.358,307.077 137.083 C 306.904 136.808,306.460 136.271,306.090 135.890 C 305.720 135.509,305.229 134.929,305.000 134.602 C 304.771 134.275,304.451 133.963,304.289 133.908 C 304.127 133.854,304.035 133.745,304.083 133.667 C 304.132 133.588,304.020 133.476,303.836 133.417 C 303.651 133.359,303.500 133.233,303.500 133.137 C 303.500 133.042,303.069 132.555,302.542 132.055 C 302.015 131.555,301.508 131.073,301.417 130.983 C 300.896 130.472,300.367 129.982,300.000 129.671 C 299.771 129.477,299.224 129.003,298.785 128.617 C 298.346 128.232,297.915 127.917,297.827 127.917 C 297.739 127.917,297.685 127.862,297.708 127.795 C 297.759 127.647,296.967 127.070,296.792 127.126 C 296.723 127.148,296.667 127.093,296.667 127.002 C 296.667 126.851,295.643 126.123,295.250 125.994 C 295.158 125.964,294.951 125.771,294.789 125.565 C 294.628 125.360,294.125 125.024,293.671 124.819 C 293.218 124.614,292.882 124.389,292.925 124.320 C 292.968 124.250,292.703 124.060,292.335 123.897 C 291.968 123.735,291.667 123.547,291.667 123.479 C 291.667 123.411,291.498 123.303,291.292 123.239 C 291.085 123.175,290.692 122.964,290.417 122.770 C 289.635 122.216,288.880 121.843,288.768 121.954 C 288.712 122.010,288.667 121.980,288.667 121.888 C 288.667 121.726,285.508 120.069,285.004 119.967 C 284.869 119.939,284.657 119.823,284.534 119.708 C 284.331 119.520,283.961 119.427,283.625 119.480 C 283.556 119.491,283.500 119.431,283.500 119.346 C 283.500 119.262,283.219 119.102,282.875 118.991 C 282.531 118.880,282.175 118.745,282.083 118.691 C 281.992 118.637,281.842 118.579,281.750 118.563 C 281.658 118.547,281.358 118.436,281.083 118.317 C 280.808 118.199,280.508 118.095,280.417 118.088 C 280.325 118.081,280.175 118.030,280.083 117.976 C 279.873 117.851,278.639 117.427,278.417 117.403 C 278.325 117.393,278.025 117.293,277.750 117.180 C 277.475 117.067,277.038 116.948,276.780 116.915 C 276.521 116.882,276.221 116.785,276.113 116.700 C 276.005 116.615,275.804 116.536,275.667 116.524 C 275.272 116.491,274.772 116.388,274.500 116.284 C 273.987 116.089,271.130 115.509,270.213 115.415 C 269.918 115.384,269.605 115.315,269.518 115.261 C 269.430 115.207,268.922 115.119,268.388 115.066 C 267.854 115.013,267.192 114.946,266.917 114.918 C 266.642 114.890,265.854 114.789,265.167 114.694 C 264.479 114.598,263.579 114.506,263.167 114.489 C 261.521 114.420,139.052 114.337,138.984 114.405 " stroke="none" fill="#f8fc1c" fill-rule="evenodd"></path></g></svg>